<svg height="100" viewBox="0 0 64 64" width="100" xmlns="http://www.w3.org/2000/svg"><path d="M48 14l-9-9h-7v57h29v-4l-7-7H43v-6l7-7V24h-2z" fill="#4c1ea5"/><path d="M32 51H9c-3.31 0-6 2.69-6 6v5h29z" fill="#e58842"/><path d="M32 56l-8-5v-8h8z" fill="#e8dac5"/><path d="M24 43v4.323A19.744 19.744 0 0032 49v-6z" fill="#dbc6a9"/><path d="M24 45.12c-1.76-.87-3.36-2.02-4.73-3.39A17.983 17.983 0 0114 29v-8c0-2.15.39-4.19 1.08-6.1.04.01.09.01.14.02.32.05.65.08.99.08H32v32c-2.88 0-5.59-.68-8-1.88z" fill="#e8dac5"/><path d="M32 15H16.21a6.4 6.4 0 01-.99-.08c-.05-.01-.1-.01-.14-.02-2.54-.46-4.65-2.42-5.02-5.03a6.001 6.001 0 015.14-6.81A3.002 3.002 0 0018 5h14z" fill="#f4b34a"/><circle cx="25" cy="26" fill="#e8dac5" r="2"/><path d="M14 30h-2c-1.1 0-2.1-.45-2.83-1.17A4.025 4.025 0 018 26c0-2.21 1.79-4 4-4h2z" fill="#e8dac5"/><path d="M15.22 14.92c-.05-.01-.1-.01-.14-.02a18.585 18.585 0 00-.605 2.1H32v-2H16.21a6.4 6.4 0 01-.99-.08z" fill="#dbc6a9"/><circle cx="25" cy="26" fill="#6c253d" r="2"/><g fill="#e58842"><path d="M45.883 13.297L38.586 6H32V4h7.414l7.883 7.883zM52 25h-7.414l-4-4H32v-2h9.414l4 4H52zm-15 3h2v15h-2zm7 7h-2v-5h6v2h-4zM32 11h4v2h-4zm0 39h9v2h-9zm30 12h-2v-3.586l-5.297-5.297 1.414-1.414L62 57.586zm-15-2h-4.414l-4-4H32v-2h7.414l4 4H47z"/><path d="M37.414 62H32v-2h4.586l3.707-3.707 1.414 1.414zM44 46h-4v-2h2v-5h2zm3-30h2v8h-2z"/><path d="M43.707 45.707l-1.414-1.414L49 37.586V33h2v5.414zM37 14h2v6h-2zm20 48h-2v-5.414l2.293-2.293 1.414 1.414L57 57.414zM45 50h7v2h-7zM32 33h6v2h-6zm12.414-5H39.73v-2h3.856l.414-.414V24h2v2.414z"/><path d="M42 45h2v4h-2zm-10-1h4v2h-4zm16 7h2v6h-2zM32 25h4v2h-4z"/></g><path d="M48 17c-1.654 0-3-1.346-3-3s1.346-3 3-3 3 1.346 3 3-1.346 3-3 3zm6 10c-1.654 0-3-1.346-3-3s1.346-3 3-3 3 1.346 3 3-1.346 3-3 3zm-4 7c-1.654 0-3-1.346-3-3s1.346-3 3-3 3 1.346 3 3-1.346 3-3 3zM38 48c-1.654 0-3-1.346-3-3s1.346-3 3-3 3 1.346 3 3-1.346 3-3 3zm5 6c-1.654 0-3-1.346-3-3s1.346-3 3-3 3 1.346 3 3-1.346 3-3 3zm6 8c-1.654 0-3-1.346-3-3s1.346-3 3-3 3 1.346 3 3-1.346 3-3 3zm5-8c-1.654 0-3-1.346-3-3s1.346-3 3-3 3 1.346 3 3-1.346 3-3 3zM43 40c-1.654 0-3-1.346-3-3s1.346-3 3-3 3 1.346 3 3-1.346 3-3 3zm-5-11c-1.654 0-3-1.346-3-3s1.346-3 3-3 3 1.346 3 3-1.346 3-3 3zm0-14c-1.654 0-3-1.346-3-3s1.346-3 3-3 3 1.346 3 3-1.346 3-3 3z" fill="#f4b34a"/><path d="M12 22h2v8h-2z" fill="#dbc6a9"/></svg>